<mxfile host="app.diagrams.net" modified="2022-06-13T19:18:18.766Z" agent="5.0 (Windows NT 10.0; Win64; x64) AppleWebKit/537.36 (KHTML, like Gecko) Chrome/102.0.5005.99 Safari/537.36" etag="OwmsIJMWfPlyPR0WqS3i" version="20.0.1" type="github">
  <diagram id="6a731a19-8d31-9384-78a2-239565b7b9f0" name="Page-1">
    <mxGraphModel dx="1153" dy="621" grid="1" gridSize="10" guides="1" tooltips="1" connect="1" arrows="1" fold="1" page="1" pageScale="1" pageWidth="1169" pageHeight="827" background="none" math="0" shadow="0">
      <root>
        <mxCell id="0" />
        <mxCell id="1" parent="0" />
        <mxCell id="hu8_-DVpD-Spbcx9PV2K-67" style="edgeStyle=orthogonalEdgeStyle;rounded=0;orthogonalLoop=1;jettySize=auto;html=1;entryX=0.5;entryY=0;entryDx=0;entryDy=0;entryPerimeter=0;" edge="1" parent="1" source="hu8_-DVpD-Spbcx9PV2K-55" target="hu8_-DVpD-Spbcx9PV2K-57">
          <mxGeometry relative="1" as="geometry" />
        </mxCell>
        <mxCell id="hu8_-DVpD-Spbcx9PV2K-55" value="START" style="ellipse;whiteSpace=wrap;html=1;" vertex="1" parent="1">
          <mxGeometry x="470" y="90" width="120" height="80" as="geometry" />
        </mxCell>
        <mxCell id="hu8_-DVpD-Spbcx9PV2K-59" value="" style="edgeStyle=orthogonalEdgeStyle;rounded=0;orthogonalLoop=1;jettySize=auto;html=1;" edge="1" parent="1" source="hu8_-DVpD-Spbcx9PV2K-56" target="hu8_-DVpD-Spbcx9PV2K-58">
          <mxGeometry relative="1" as="geometry" />
        </mxCell>
        <mxCell id="hu8_-DVpD-Spbcx9PV2K-56" value="Input a number" style="html=1;strokeWidth=2;shape=manualInput;whiteSpace=wrap;rounded=1;size=26;arcSize=11;" vertex="1" parent="1">
          <mxGeometry x="480" y="300" width="100" height="60" as="geometry" />
        </mxCell>
        <mxCell id="hu8_-DVpD-Spbcx9PV2K-68" style="edgeStyle=orthogonalEdgeStyle;rounded=0;orthogonalLoop=1;jettySize=auto;html=1;entryX=0.5;entryY=0.197;entryDx=0;entryDy=0;entryPerimeter=0;" edge="1" parent="1" source="hu8_-DVpD-Spbcx9PV2K-57" target="hu8_-DVpD-Spbcx9PV2K-56">
          <mxGeometry relative="1" as="geometry" />
        </mxCell>
        <mxCell id="hu8_-DVpD-Spbcx9PV2K-57" value="" style="verticalLabelPosition=bottom;verticalAlign=top;html=1;shape=mxgraph.flowchart.on-page_reference;" vertex="1" parent="1">
          <mxGeometry x="515" y="230" width="30" height="30" as="geometry" />
        </mxCell>
        <mxCell id="hu8_-DVpD-Spbcx9PV2K-61" value="" style="edgeStyle=orthogonalEdgeStyle;rounded=0;orthogonalLoop=1;jettySize=auto;html=1;" edge="1" parent="1" source="hu8_-DVpD-Spbcx9PV2K-58" target="hu8_-DVpD-Spbcx9PV2K-60">
          <mxGeometry relative="1" as="geometry" />
        </mxCell>
        <mxCell id="hu8_-DVpD-Spbcx9PV2K-63" value="" style="edgeStyle=orthogonalEdgeStyle;rounded=0;orthogonalLoop=1;jettySize=auto;html=1;" edge="1" parent="1" source="hu8_-DVpD-Spbcx9PV2K-58" target="hu8_-DVpD-Spbcx9PV2K-62">
          <mxGeometry relative="1" as="geometry" />
        </mxCell>
        <mxCell id="hu8_-DVpD-Spbcx9PV2K-58" value="is it -ve?" style="rhombus;whiteSpace=wrap;html=1;strokeWidth=2;rounded=1;arcSize=11;" vertex="1" parent="1">
          <mxGeometry x="490" y="430" width="80" height="80" as="geometry" />
        </mxCell>
        <mxCell id="hu8_-DVpD-Spbcx9PV2K-66" style="edgeStyle=orthogonalEdgeStyle;rounded=0;orthogonalLoop=1;jettySize=auto;html=1;entryX=1;entryY=0.5;entryDx=0;entryDy=0;entryPerimeter=0;" edge="1" parent="1" source="hu8_-DVpD-Spbcx9PV2K-60" target="hu8_-DVpD-Spbcx9PV2K-57">
          <mxGeometry relative="1" as="geometry">
            <Array as="points">
              <mxPoint x="670" y="245" />
            </Array>
          </mxGeometry>
        </mxCell>
        <mxCell id="hu8_-DVpD-Spbcx9PV2K-60" value="Calculate sum&lt;br&gt;and request more input" style="whiteSpace=wrap;html=1;strokeWidth=2;rounded=1;arcSize=11;" vertex="1" parent="1">
          <mxGeometry x="630" y="440" width="120" height="60" as="geometry" />
        </mxCell>
        <mxCell id="hu8_-DVpD-Spbcx9PV2K-69" value="" style="edgeStyle=orthogonalEdgeStyle;rounded=0;orthogonalLoop=1;jettySize=auto;html=1;" edge="1" parent="1" source="hu8_-DVpD-Spbcx9PV2K-62" target="hu8_-DVpD-Spbcx9PV2K-64">
          <mxGeometry relative="1" as="geometry" />
        </mxCell>
        <mxCell id="hu8_-DVpD-Spbcx9PV2K-62" value="Calculate sum" style="whiteSpace=wrap;html=1;strokeWidth=2;rounded=1;arcSize=11;" vertex="1" parent="1">
          <mxGeometry x="470" y="600" width="120" height="60" as="geometry" />
        </mxCell>
        <mxCell id="hu8_-DVpD-Spbcx9PV2K-70" style="edgeStyle=orthogonalEdgeStyle;rounded=0;orthogonalLoop=1;jettySize=auto;html=1;entryX=0.5;entryY=0;entryDx=0;entryDy=0;entryPerimeter=0;" edge="1" parent="1" source="hu8_-DVpD-Spbcx9PV2K-64" target="hu8_-DVpD-Spbcx9PV2K-65">
          <mxGeometry relative="1" as="geometry" />
        </mxCell>
        <mxCell id="hu8_-DVpD-Spbcx9PV2K-64" value="Print the sum" style="strokeWidth=2;html=1;shape=mxgraph.flowchart.display;whiteSpace=wrap;" vertex="1" parent="1">
          <mxGeometry x="480" y="710" width="100" height="60" as="geometry" />
        </mxCell>
        <mxCell id="hu8_-DVpD-Spbcx9PV2K-65" value="END" style="strokeWidth=2;html=1;shape=mxgraph.flowchart.start_1;whiteSpace=wrap;" vertex="1" parent="1">
          <mxGeometry x="485" y="827" width="100" height="60" as="geometry" />
        </mxCell>
        <mxCell id="hu8_-DVpD-Spbcx9PV2K-73" value="no" style="text;html=1;strokeColor=none;fillColor=none;align=center;verticalAlign=middle;whiteSpace=wrap;rounded=0;" vertex="1" parent="1">
          <mxGeometry x="560" y="440" width="60" height="30" as="geometry" />
        </mxCell>
        <mxCell id="hu8_-DVpD-Spbcx9PV2K-75" value="&lt;b&gt;Flowchart for a program to calculate sum of input until a negative number is supplied as input&lt;/b&gt;" style="text;html=1;strokeColor=none;fillColor=none;align=center;verticalAlign=middle;whiteSpace=wrap;rounded=0;" vertex="1" parent="1">
          <mxGeometry x="350" y="30" width="420" height="30" as="geometry" />
        </mxCell>
      </root>
    </mxGraphModel>
  </diagram>
</mxfile>
